inDegrees=no
num_controls=7
num_derivatives=13
num_iterations=81
num_multipliers=7
num_parameters=0
num_slacks=7
num_states=26
objective=0.519402
objective_accelerations=0.001250
objective_balance=0.008533
objective_effort=0.012481
objective_height=0.475320
objective_ligament=0.021818
solver_duration=1207.440299
status=Solve_Succeeded
success=true
DataType=double
version=3
OpenSimVersion=4.5
endheader
time	/jointset/ground_pelvis/pelvis_tilt/value	/jointset/ground_pelvis/pelvis_tx/value	/jointset/ground_pelvis/pelvis_ty/value	/jointset/hip_l/hip_flexion_l/value	/jointset/hip_l/hip_adduction_l/value	/jointset/hip_l/hip_rotation_l/value	/jointset/back/lumbar_extension/value	/jointset/patellofemoral_l/patellar_flexion_l/value	/jointset/knee_l/knee_flexion_l/value	/jointset/knee_l/knee_adduction_l/value	/jointset/knee_l/knee_rotation_l/value	/jointset/ankle_l/ankle_angle_l/value	/jointset/subtalar_l/subtalar_angle_l/value	/jointset/ground_pelvis/pelvis_tilt/speed	/jointset/ground_pelvis/pelvis_tx/speed	/jointset/ground_pelvis/pelvis_ty/speed	/jointset/hip_l/hip_flexion_l/speed	/jointset/hip_l/hip_adduction_l/speed	/jointset/hip_l/hip_rotation_l/speed	/jointset/back/lumbar_extension/speed	/jointset/patellofemoral_l/patellar_flexion_l/speed	/jointset/knee_l/knee_flexion_l/speed	/jointset/knee_l/knee_adduction_l/speed	/jointset/knee_l/knee_rotation_l/speed	/jointset/ankle_l/ankle_angle_l/speed	/jointset/subtalar_l/subtalar_angle_l/speed	/forceset/tau_hip_flexion_l	/forceset/tau_hip_adduction_l	/forceset/tau_hip_rotation_l	/forceset/tau_knee_flexion_l	/forceset/tau_ankle_angle_l	/forceset/tau_subtalar_angle_l	/forceset/tau_lumbar_extension	lambda_cid13_p0	lambda_cid13_p1	lambda_cid13_p2	lambda_cid13_p3	lambda_cid13_p4	lambda_cid13_p5	lambda_cid14_p0	/jointset/ground_pelvis/pelvis_tilt/accel	/jointset/ground_pelvis/pelvis_tx/accel	/jointset/ground_pelvis/pelvis_ty/accel	/jointset/hip_l/hip_flexion_l/accel	/jointset/hip_l/hip_adduction_l/accel	/jointset/hip_l/hip_rotation_l/accel	/jointset/back/lumbar_extension/accel	/jointset/patellofemoral_l/patellar_flexion_l/accel	/jointset/knee_l/knee_flexion_l/accel	/jointset/knee_l/knee_adduction_l/accel	/jointset/knee_l/knee_rotation_l/accel	/jointset/ankle_l/ankle_angle_l/accel	/jointset/subtalar_l/subtalar_angle_l/accel	gamma_cid13_p0	gamma_cid13_p1	gamma_cid13_p2	gamma_cid13_p3	gamma_cid13_p4	gamma_cid13_p5	gamma_cid14_p0
0.5	-0.14533971826013	0.05073960391480559	0.9036406660597222	0.3902467049885477	-0.1165763240760144	-0.009857926920480304	-0.04803087890152688	0.03611396390817408	0.03611396390817885	0.128233026860298	-0.1097186425055528	-0.02871442317000202	0.1333444645524677	-0.0518719717785967	0.02150448488642658	-0.002968381435856424	0.03768968559580673	-0.0028107558342836	-0.01617282079653335	-0.09804469504883981	0.01345308777934895	0.01345308777934928	-0.005434701638531222	0.01523923979318128	0.03128454989423937	0.007732238481212757	0.01018269956590122	0.08172869244327009	0.02764299295387398	-0.1537982480896444	0.1771858814606962	-0.02482145291014954	0.03073032020138812	13.01205946351159	18.38090087697868	-14.61732981158886	3.328181299561378	-629.2281114504382	-14.76464465206314	-33.9869633206705	0.05273204793956324	-0.04052689885652291	-0.001054814135562316	-0.0006228206047743678	0.001920813237813153	0.007166653520598018	0.03386059056649995	0.0103690849147369	0.01036908491473707	0.003287880211157153	-0.0009279089021514164	-0.04373627460771447	-0.0123688815802803	-7.575871241036491e-11	2.962312418379691e-10	-1.2089129600623e-10	4.147109973798699e-11	-3.671241969677554e-12	2.700835433528709e-10	-2.879123716013305e-11
0.51	-0.145855744755884	0.05095260343604067	0.903610934195205	0.3906235188852631	-0.1166043193656523	-0.01001927545470289	-0.04900953469940491	0.03624899005975901	0.0362489900597765	0.1281788762333753	-0.109566321212082	-0.02840379714466913	0.1334211736942922	-0.05132807057646533	0.02109346339368125	-0.002977597476740761	0.03766881605277136	-0.00278737500598284	-0.01609563074632079	-0.09767595959138768	0.01355038432935142	0.01355038432935148	-0.005393644124114905	0.01522366305212519	0.03083760974105333	0.007609487383460027	0.009279545491123206	0.08182664969742237	0.0274169670383606	-0.152566899785518	0.1755779760276164	-0.02491602265683421	0.03143859352849981	12.49732597532442	18.4088150702818	-14.50380545096793	3.50098991314119	-629.2347916435101	-14.72001245174403	-33.9912669807144	0.05600766431193215	-0.04168316031284464	-0.0007959058217917545	-0.003460688498822865	0.002685777625381724	0.008183506723256727	0.03995576384479571	0.009146214454764406	0.009146214454893145	0.004781650835714264	-0.00207589889409539	-0.04562970757747353	-0.01224362811817689	-7.977051838664505e-11	3.196491414068804e-10	-1.292850017395002e-10	3.71729606739241e-11	-6.328326141042489e-11	3.163141698006612e-10	-3.094873268565469e-11
0.52	-0.146366174538029	0.05116143406518343	0.9035811219889257	0.3909999957530931	-0.1166320530350235	-0.01017981442323063	-0.04998418799460203	0.03638493643172338	0.03638493643172996	0.1281251895743966	-0.1094141963544965	-0.02809773188524674	0.1334966522442909	-0.05075262905581383	0.02067070646796115	-0.00298444978826501	0.03762227981592758	-0.002758431777694086	-0.01601090765803061	-0.09724419451354775	0.01363713185581359	0.01363713185581336	-0.005341908058563758	0.0151999526235946	0.03037239671172111	0.007486120115883866	0.008376391416448595	0.08192460695153686	0.02719094112262806	-0.1513355514814552	0.1739700705945077	-0.02501059240356334	0.03214686685573483	11.98251551029592	18.43675325357436	-14.39029692293738	3.676272262480494	-629.2413602645886	-14.67509353945247	-33.99560158247943	0.05904011164379296	-0.04287398545165889	-0.0005820682635508139	-0.005756159366412383	0.0030332932354436	0.008673261136111486	0.04646651464419738	0.008259280206657758	0.008259280206657983	0.005423590438174226	-0.002554646397021862	-0.04739084983718158	-0.01249211554501079	-7.942507162797857e-11	3.748053158475384e-10	-1.396232793125947e-10	1.408043849312837e-11	-1.368092362669105e-10	4.01832114528689e-10	-3.621616549713235e-11
0.53	-0.1468706981848603	0.05136598122873142	0.9035512526257928	0.391375885225561	-0.1166594673149347	-0.0103394927796431	-0.05095421005038856	0.03652169978740466	0.0365216997874142	0.1280720762956803	-0.109262325401866	-0.02779640413294682	0.1335708985553141	-0.05014732184512696	0.02023706629112982	-0.002989048783244836	0.0375516676266151	-0.0027233459604742	-0.01592605390978198	-0.09674991779556298	0.01371372617162757	0.01371372617162752	-0.00527884169413182	0.01517537406711284	0.02989061358922605	0.007363397348385745	0.007503864959321767	0.08202088756329336	0.02697350763025612	-0.1501608287973518	0.1724433026577867	-0.02510180092699443	0.03283401178544181	11.49388201967882	18.46346630672947	-14.28209644603689	3.83351423948768	-629.2496155528971	-14.63141198462291	-33.99996409960596	0.06199277542466919	-0.04385802643722932	-0.0003427419430327979	-0.008305830166572738	0.003907969814155173	0.008197922889512491	0.05245307781665388	0.007087548681985121	0.007087548682230375	0.007034081576482835	-0.002238996882214767	-0.04895306952239566	-0.01212411267384574	-9.370988384036447e-11	3.528410463040584e-10	-1.293120276964879e-10	1.396946663555167e-11	-1.779668148659961e-10	3.499167403244937e-10	-4.175697589674888e-11
0.54	-0.147369025409665	0.05156614219198456	0.9035213484873424	0.3917509501598505	-0.1166864983879211	-0.0104983613003274	-0.05191898037350506	0.03665917469452543	0.03665917469452943	0.1280196508650734	-0.1091106661421051	-0.02749997041708247	0.1336439252875989	-0.0495133446486453	0.01979346640898862	-0.002991404851783194	0.03745737217922072	-0.002681790389274138	-0.01584894051271664	-0.09619384797995971	0.01377944214395817	0.01377944214395828	-0.005204338444489947	0.01515761404628234	0.02939358942405136	0.007242204368013587	0.00663133850224461	0.0821171681750045	0.0267560741379856	-0.1489861061132877	0.1709165347210293	-0.0251930094504847	0.0335211567152319	11.00513705320642	18.49020925458522	-14.17391258736772	3.993460838592226	-629.2581343798435	-14.58744870821896	-34.00435130450077	0.06477410880293659	-0.04486592651379065	-0.0001334829752625826	-0.0104928109827589	0.004327244031495419	0.007125190899448597	0.0588251341680274	0.006083611509952832	0.006083611509952825	0.007710967480184797	-0.001190939266743997	-0.05043905837331327	-0.0121861581198703	-1.241813655526383e-10	2.455520302249355e-10	-9.615448846679633e-11	3.928489088026014e-11	-1.833125507973195e-10	1.459474813442199e-10	-4.760024660664671e-11
0.55	-0.1478608734408516	0.05176181887895599	0.9034914318323727	0.3921249558929294	-0.1167130931586981	-0.01065647325782516	-0.05287788959714759	0.03679725571635865	0.03679725571636149	0.1279680067183932	-0.1089591720316583	-0.02720858172690155	0.1337157360547523	-0.04885176889135016	0.01934038015827692	-0.002991546490325049	0.03733977429141654	-0.00263723647725392	-0.01577237971401344	-0.09557859449532874	0.01383504039106786	0.01383504039106821	-0.005124671040992965	0.01514020779453283	0.02888166838614189	0.007119016958553605	0.005792772393444022	0.08220938879535628	0.02654831372558206	-0.1478697952732439	0.1694699779322522	-0.02528008915139658	0.03418383472389158	10.542260277713	18.51550339684027	-14.07106466008238	4.13733470370268	-629.2679494796952	-14.54511179701463	-34.00875992388362	0.06752319453063015	-0.04575358815685315	0.000102406241862568	-0.01299332309735763	0.004508537812542047	0.008082240396582077	0.0642857938048909	0.005039666599985808	0.005039666600270442	0.008067626699825987	-0.002165476112040483	-0.05194068029413675	-0.01252486474881984	-1.265449752223155e-10	2.267097910918019e-10	-9.027847428443161e-11	4.726266558452577e-11	-1.236508193352217e-10	1.274029242582363e-10	-4.80857414806034e-11
0.5600000000000001	-0.1483459709374097	0.0519529199806601	0.9034615251431222	0.3924976656380443	-0.1167392445757688	-0.01081378746412598	-0.05383036421830523	0.03693584106772207	0.03693584106772879	0.1279171538457606	-0.1088078819852619	-0.02692238665785581	0.1337862869813341	-0.0481632377204835	0.01887834935552445	-0.002989411707930011	0.03719817458692502	-0.002593119644199267	-0.01568939027367588	-0.0949069274829519	0.01388030804970599	0.01388030804970659	-0.005046083640902572	0.0151168012234487	0.0283548651964464	0.006990236253493643	0.004954206284651323	0.08230160941566517	0.02634055331354758	-0.1467534844332065	0.1680234211434387	-0.02536716885236897	0.03484651273259576	10.07924386493717	18.5408265323936	-13.96822654520627	4.284110250517805	-629.2783430858924	-14.50253756279123	-34.01318676651647	0.07016519151739874	-0.04665483692207446	0.0003218012121120906	-0.01529317432020001	0.004239828238382501	0.00841091922631957	0.07010783971732827	0.004017493815605708	0.004017493815605682	0.007494966798861181	-0.002391003133649197	-0.05341548873069587	-0.01330481723992416	-9.517913844087799e-11	3.140036842938522e-10	-1.171402901588581e-10	3.443526084026064e-11	1.401987299897915e-11	3.313680094453937e-10	-4.214190535143094e-11
0.5700000000000001	-0.1488240555650149	0.05213935865135893	0.9034316506170552	0.3928688466101589	-0.1167649434129112	-0.01097025673569547	-0.05477583761946045	0.03707482970001201	0.03707482970000782	0.1278671070611141	-0.1086568420675062	-0.0266415288543677	0.1338555379456872	-0.0474498136317234	0.01840817037732406	-0.002985149301667624	0.03703448338975414	-0.002545373598759022	-0.01560520126423261	-0.09417814273427032	0.01391568082353757	0.01391568082353743	-0.004960926658181358	0.01509165176213091	0.0278146541218172	0.006860569132662113	0.004145114787093787	0.08239348236444341	0.02614099365425706	-0.1456902786612102	0.1666526751567785	-0.02545067987702821	0.03548869529152177	9.640743436777496	18.56481651718195	-13.87032659045624	4.414545624770176	-629.2894634082554	-14.46157965409082	-34.0176286295058	0.07251212548551164	-0.04738158414971982	0.0005301092925843779	-0.01743757581240206	0.005233129997302429	0.008312338707146266	0.075705294713845	0.003036539045163386	0.003036539045315285	0.009378078034776917	-0.002506469042035763	-0.05463012956489773	-0.01270582169200738	-8.306135126232098e-11	3.466352559391782e-10	-1.21825101525413e-10	3.660032424979994e-11	7.046211242393388e-11	4.218347205864031e-10	-3.874921839968454e-11
